<svg width="12" height="13" viewBox="0 0 12 13" fill="none" xmlns="http://www.w3.org/2000/svg">
<path d="M6 0.75C5.17188 0.75 4.39453 0.90625 3.66797 1.21875C2.94141 1.53906 2.30469 1.97266 1.75781 2.51953C1.21875 3.05859 0.789062 3.69141 0.46875 4.41797C0.15625 5.14453 0 5.92188 0 6.75C0 7.57812 0.15625 8.35547 0.46875 9.08203C0.789062 9.80859 1.21875 10.4453 1.75781 10.9922C2.30469 11.5312 2.94141 11.9609 3.66797 12.2812C4.39453 12.5938 5.17188 12.75 6 12.75C6.82812 12.75 7.60547 12.5938 8.33203 12.2812C9.05859 11.9609 9.69141 11.5312 10.2305 10.9922C10.7773 10.4453 11.2109 9.80859 11.5312 9.08203C11.8438 8.35547 12 7.57812 12 6.75C12 5.92188 11.8438 5.14453 11.5312 4.41797C11.2109 3.69141 10.7773 3.05859 10.2305 2.51953C9.69141 1.97266 9.05859 1.53906 8.33203 1.21875C7.60547 0.90625 6.82812 0.75 6 0.75ZM6 11.7539C5.3125 11.7539 4.66406 11.6211 4.05469 11.3555C3.44531 11.0977 2.91406 10.7422 2.46094 10.2891C2.00781 9.83594 1.65234 9.30469 1.39453 8.69531C1.12891 8.08594 0.996094 7.4375 0.996094 6.75C0.996094 6.0625 1.12891 5.41406 1.39453 4.80469C1.65234 4.19531 2.00781 3.66406 2.46094 3.21094C2.91406 2.75781 3.44531 2.40234 4.05469 2.14453C4.66406 1.87891 5.3125 1.74609 6 1.74609C6.6875 1.74609 7.33594 1.87891 7.94531 2.14453C8.55469 2.40234 9.08594 2.75781 9.53906 3.21094C9.99219 3.66406 10.3477 4.19531 10.6055 4.80469C10.8711 5.41406 11.0039 6.0625 11.0039 6.75C11.0039 7.4375 10.8711 8.08594 10.6055 8.69531C10.3477 9.30469 9.99219 9.83594 9.53906 10.2891C9.08594 10.7422 8.55469 11.0977 7.94531 11.3555C7.33594 11.6211 6.6875 11.7539 6 11.7539ZM6 3.75C5.85938 3.75 5.73828 3.80078 5.63672 3.90234C5.54297 3.99609 5.49609 4.11328 5.49609 4.25391V6.75H3.99609C3.86328 6.75 3.74609 6.80078 3.64453 6.90234C3.55078 6.99609 3.50391 7.11328 3.50391 7.25391C3.50391 7.38672 3.55078 7.50391 3.64453 7.60547C3.74609 7.69922 3.86328 7.74609 3.99609 7.74609H6C6.14062 7.74609 6.25781 7.69922 6.35156 7.60547C6.45312 7.50391 6.50391 7.38672 6.50391 7.25391V4.25391C6.50391 4.11328 6.45312 3.99609 6.35156 3.90234C6.25781 3.80078 6.14062 3.75 6 3.75Z" fill="#A0A8A7"/>
</svg>
