<svg width="16" height="18" viewBox="0 0 16 18" fill="none" xmlns="http://www.w3.org/2000/svg">
<path d="M15.7529 13.6758C15.7529 13.6536 15.7474 13.6315 15.7363 13.6094C15.7363 13.5872 15.7308 13.5596 15.7197 13.5264C15.7087 13.5042 15.6921 13.4821 15.6699 13.46C15.6478 13.4378 15.6257 13.4157 15.6035 13.3936C15.6035 13.3825 15.598 13.3714 15.5869 13.3604C15.5869 13.3493 15.5814 13.3382 15.5703 13.3271C15.5592 13.3271 15.5537 13.3271 15.5537 13.3271C15.5537 13.3161 15.5537 13.3105 15.5537 13.3105C15.5316 13.2884 15.5039 13.2718 15.4707 13.2607C15.4486 13.2497 15.4209 13.2331 15.3877 13.2109C15.3766 13.2109 15.3656 13.2054 15.3545 13.1943C15.3434 13.1833 15.3324 13.1777 15.3213 13.1777C15.2992 13.1667 15.277 13.1611 15.2549 13.1611C15.2327 13.1611 15.2161 13.1611 15.2051 13.1611C15.1719 13.1501 15.1387 13.1445 15.1055 13.1445C15.0833 13.1335 15.0612 13.1335 15.0391 13.1445C15.0391 13.1445 15.0335 13.1445 15.0225 13.1445C15.0225 13.1335 15.0225 13.1279 15.0225 13.1279C14.9229 13.139 14.8232 13.1501 14.7236 13.1611C14.624 13.1611 14.5244 13.1611 14.4248 13.1611C13.4951 13.1611 12.6263 12.9951 11.8184 12.6631C10.9993 12.32 10.2855 11.8607 9.67676 11.2852C9.06803 10.6986 8.58659 10.0124 8.23242 9.22656C7.87826 8.45182 7.70117 7.62174 7.70117 6.73633C7.70117 6.22721 7.76758 5.72363 7.90039 5.22559C8.02214 4.73861 8.19922 4.27376 8.43164 3.83105C8.67513 3.37728 8.96842 2.95671 9.31152 2.56934C9.65462 2.18197 10.042 1.83887 10.4736 1.54004C10.4736 1.52897 10.4792 1.52344 10.4902 1.52344C10.5013 1.51237 10.5124 1.49577 10.5234 1.47363C10.5456 1.4515 10.5677 1.4349 10.5898 1.42383C10.6009 1.40169 10.612 1.38509 10.623 1.37402C10.6452 1.36296 10.6618 1.34635 10.6729 1.32422C10.6839 1.30208 10.6895 1.28548 10.6895 1.27441C10.6895 1.25228 10.695 1.23568 10.7061 1.22461C10.7171 1.19141 10.7282 1.16374 10.7393 1.1416C10.7503 1.11947 10.7559 1.0918 10.7559 1.05859C10.7669 1.05859 10.7725 1.05306 10.7725 1.04199C10.7725 1.03092 10.7669 1.01986 10.7559 1.00879C10.7559 0.986654 10.7559 0.964518 10.7559 0.942383C10.7559 0.920247 10.7559 0.898112 10.7559 0.875977C10.7559 0.842773 10.7503 0.815104 10.7393 0.792969C10.7393 0.759766 10.7337 0.732096 10.7227 0.709961C10.7116 0.687826 10.7005 0.66569 10.6895 0.643555C10.6784 0.632487 10.6673 0.621419 10.6562 0.610352C10.6562 0.588216 10.6507 0.571615 10.6396 0.560547C10.6396 0.549479 10.6396 0.543945 10.6396 0.543945C10.6396 0.543945 10.6341 0.543945 10.623 0.543945C10.612 0.52181 10.5954 0.505208 10.5732 0.494141C10.5511 0.472005 10.529 0.44987 10.5068 0.427734C10.4958 0.416667 10.4847 0.405599 10.4736 0.394531C10.4626 0.383464 10.446 0.372396 10.4238 0.361328C10.4128 0.35026 10.3962 0.344727 10.374 0.344727C10.3519 0.333659 10.3298 0.322591 10.3076 0.311523C10.2855 0.300456 10.2633 0.289388 10.2412 0.27832C10.2191 0.267253 10.1969 0.261719 10.1748 0.261719C10.1637 0.261719 10.1582 0.261719 10.1582 0.261719C10.1582 0.261719 10.1527 0.261719 10.1416 0.261719C9.93132 0.228516 9.7321 0.20638 9.54395 0.195312C9.36686 0.184245 9.19531 0.178711 9.0293 0.178711C7.81185 0.178711 6.66634 0.400065 5.59277 0.842773C4.51921 1.29655 3.58398 1.91081 2.78711 2.68555C1.99023 3.44922 1.35938 4.3457 0.894531 5.375C0.440755 6.4043 0.213867 7.50553 0.213867 8.67871C0.213867 9.85189 0.440755 10.9531 0.894531 11.9824C1.35938 13.0117 1.99023 13.9137 2.78711 14.6885C3.58398 15.4521 4.51921 16.0609 5.59277 16.5146C6.66634 16.9574 7.81185 17.1787 9.0293 17.1787C9.64909 17.1787 10.2633 17.1123 10.8721 16.9795C11.4808 16.8577 12.0618 16.6751 12.6152 16.4316C13.1797 16.1882 13.7165 15.8893 14.2256 15.5352C14.7236 15.181 15.1829 14.777 15.6035 14.3232C15.6035 14.3122 15.609 14.3066 15.6201 14.3066C15.6312 14.2845 15.6423 14.2624 15.6533 14.2402C15.6644 14.2181 15.6755 14.196 15.6865 14.1738C15.6976 14.1628 15.7087 14.1517 15.7197 14.1406C15.7308 14.1185 15.7419 14.0964 15.7529 14.0742C15.7529 14.0521 15.7529 14.0355 15.7529 14.0244C15.764 14.0023 15.7695 13.9857 15.7695 13.9746C15.7695 13.9414 15.7695 13.9137 15.7695 13.8916C15.7806 13.8584 15.7861 13.8252 15.7861 13.792C15.7861 13.792 15.7861 13.7865 15.7861 13.7754C15.7861 13.7643 15.7806 13.7533 15.7695 13.7422C15.7695 13.7201 15.764 13.6979 15.7529 13.6758ZM9.0293 15.7676C8 15.7676 7.03711 15.5794 6.14062 15.2031C5.24414 14.8379 4.45833 14.3343 3.7832 13.6924C3.11914 13.0505 2.59342 12.2979 2.20605 11.4346C1.81868 10.5713 1.625 9.65267 1.625 8.67871C1.625 7.76009 1.79655 6.89681 2.13965 6.08887C2.48275 5.28092 2.94759 4.56152 3.53418 3.93066C4.13184 3.2998 4.83464 2.78516 5.64258 2.38672C6.45052 1.97721 7.31934 1.72819 8.24902 1.63965C7.93913 1.99382 7.66243 2.37012 7.41895 2.76855C7.17546 3.16699 6.9707 3.58203 6.80469 4.01367C6.63867 4.44531 6.51139 4.88802 6.42285 5.3418C6.33431 5.79557 6.29004 6.26042 6.29004 6.73633C6.29004 7.72135 6.46712 8.65104 6.82129 9.52539C7.17546 10.3997 7.66243 11.1855 8.28223 11.8828C8.91309 12.569 9.64909 13.139 10.4902 13.5928C11.3314 14.0465 12.2445 14.3454 13.2295 14.4893C12.6208 14.8988 11.9567 15.2142 11.2373 15.4355C10.5179 15.6569 9.7819 15.7676 9.0293 15.7676Z" fill="#404343"/>
</svg>
