<svg width="10" height="16" viewBox="0 0 10 16" fill="none" xmlns="http://www.w3.org/2000/svg">
<path d="M6 16H3C2.86458 16 2.74479 15.9479 2.64062 15.8438C2.54688 15.75 2.5 15.6354 2.5 15.5V9H1C0.864583 9 0.744792 8.95312 0.640625 8.85938C0.546875 8.75521 0.5 8.63542 0.5 8.5V6C0.5 5.86458 0.546875 5.75 0.640625 5.65625C0.744792 5.55208 0.864583 5.5 1 5.5H2.5V3.5C2.5 3.02083 2.59375 2.56771 2.78125 2.14062C2.95833 1.71354 3.20312 1.34375 3.51562 1.03125C3.83854 0.708333 4.21354 0.458333 4.64062 0.28125C5.06771 0.09375 5.52083 0 6 0H8C8.13542 0 8.25 0.0520833 8.34375 0.15625C8.44792 0.25 8.5 0.364583 8.5 0.5V3C8.5 3.13542 8.44792 3.25521 8.34375 3.35938C8.25 3.45312 8.13542 3.5 8 3.5H7C6.86458 3.5 6.74479 3.55208 6.64062 3.65625C6.54688 3.75 6.5 3.86458 6.5 4V5.5H9C9.13542 5.5 9.25 5.55208 9.34375 5.65625C9.44792 5.75 9.5 5.86458 9.5 6C9.5 6.03125 9.49479 6.0625 9.48438 6.09375C9.48438 6.125 9.47917 6.15625 9.46875 6.1875L8.46875 8.6875C8.42708 8.78125 8.36458 8.85938 8.28125 8.92188C8.19792 8.97396 8.10417 9 8 9H6.5V15.5C6.5 15.6354 6.44792 15.75 6.34375 15.8438C6.25 15.9479 6.13542 16 6 16ZM3.5 15H5.5V8.5C5.5 8.36458 5.54688 8.25 5.64062 8.15625C5.74479 8.05208 5.86458 8 6 8H7.65625L8.26562 6.5H6C5.86458 6.5 5.74479 6.45312 5.64062 6.35938C5.54688 6.25521 5.5 6.13542 5.5 6V4C5.5 3.58333 5.64583 3.22917 5.9375 2.9375C6.22917 2.64583 6.58333 2.5 7 2.5H7.5V1H6C5.3125 1 4.72396 1.24479 4.23438 1.73438C3.74479 2.22396 3.5 2.8125 3.5 3.5V6C3.5 6.13542 3.44792 6.25521 3.34375 6.35938C3.25 6.45312 3.13542 6.5 3 6.5H1.5V8H3C3.13542 8 3.25 8.05208 3.34375 8.15625C3.44792 8.25 3.5 8.36458 3.5 8.5V15Z" fill="#404343"/>
</svg>
