<svg width="14" height="15" viewBox="0 0 14 15" fill="none" xmlns="http://www.w3.org/2000/svg">
<path d="M13.7812 5.76172L7.36914 0.511719C7.25977 0.420573 7.13672 0.375 7 0.375C6.86328 0.375 6.74023 0.420573 6.63086 0.511719L0.21875 5.76172C0.145833 5.81641 0.0911458 5.88477 0.0546875 5.9668C0.0182292 6.03971 0 6.12174 0 6.21289V12.625C0 13.1081 0.16862 13.5182 0.505859 13.8555C0.852214 14.2018 1.26693 14.375 1.75 14.375H12.25C12.7331 14.375 13.1432 14.2018 13.4805 13.8555C13.8268 13.5182 14 13.1081 14 12.625V6.21289C14 6.12174 13.9818 6.03971 13.9453 5.9668C13.9089 5.88477 13.8542 5.81641 13.7812 5.76172ZM8.75 13.2129H5.25V10.2871C5.25 9.80404 5.41862 9.39388 5.75586 9.05664C6.10221 8.71029 6.51693 8.53711 7 8.53711C7.48307 8.53711 7.89323 8.71029 8.23047 9.05664C8.57682 9.39388 8.75 9.80404 8.75 10.2871V13.2129ZM12.8379 12.625C12.8379 12.7891 12.7786 12.9303 12.6602 13.0488C12.5508 13.1582 12.4141 13.2129 12.25 13.2129H9.91211V10.2871C9.91211 9.88607 9.83919 9.50781 9.69336 9.15234C9.53841 8.80599 9.32878 8.50065 9.06445 8.23633C8.80013 7.97201 8.49023 7.76237 8.13477 7.60742C7.7793 7.45247 7.40104 7.375 7 7.375C6.59896 7.375 6.2207 7.45247 5.86523 7.60742C5.50977 7.76237 5.19987 7.97201 4.93555 8.23633C4.67122 8.50065 4.46159 8.80599 4.30664 9.15234C4.16081 9.50781 4.08789 9.88607 4.08789 10.2871V13.2129H1.75C1.58594 13.2129 1.44466 13.1582 1.32617 13.0488C1.2168 12.9303 1.16211 12.7891 1.16211 12.625V6.48633L7 1.71484L12.8379 6.48633V12.625Z" fill="#5DD5C4"/>
</svg>
