<svg width="17" height="16" viewBox="0 0 17 16" fill="none" xmlns="http://www.w3.org/2000/svg">
<path d="M12 16H5C4.375 16 3.79167 15.8802 3.25 15.6406C2.69792 15.4115 2.21875 15.0938 1.8125 14.6875C1.40625 14.2812 1.08854 13.8021 0.859375 13.25C0.619792 12.7083 0.5 12.125 0.5 11.5V4.5C0.5 3.875 0.619792 3.29167 0.859375 2.75C1.08854 2.19792 1.40625 1.71875 1.8125 1.3125C2.21875 0.90625 2.69792 0.588542 3.25 0.359375C3.79167 0.119792 4.375 0 5 0H12C12.625 0 13.2083 0.119792 13.75 0.359375C14.3021 0.588542 14.7812 0.90625 15.1875 1.3125C15.5938 1.71875 15.9115 2.19792 16.1406 2.75C16.3802 3.29167 16.5 3.875 16.5 4.5V11.5C16.5 12.125 16.3802 12.7083 16.1406 13.25C15.9115 13.8021 15.5938 14.2812 15.1875 14.6875C14.7812 15.0938 14.3021 15.4115 13.75 15.6406C13.2083 15.8802 12.625 16 12 16ZM5 1C4.52083 1 4.06771 1.09375 3.64062 1.28125C3.21354 1.45833 2.83854 1.70833 2.51562 2.03125C2.20312 2.34375 1.95833 2.71354 1.78125 3.14062C1.59375 3.56771 1.5 4.02083 1.5 4.5V11.5C1.5 11.9792 1.59375 12.4323 1.78125 12.8594C1.95833 13.2865 2.20312 13.6615 2.51562 13.9844C2.83854 14.2969 3.21354 14.5417 3.64062 14.7188C4.06771 14.9062 4.52083 15 5 15H12C12.4792 15 12.9323 14.9062 13.3594 14.7188C13.7865 14.5417 14.1562 14.2969 14.4688 13.9844C14.7917 13.6615 15.0417 13.2865 15.2188 12.8594C15.4062 12.4323 15.5 11.9792 15.5 11.5V4.5C15.5 4.02083 15.4062 3.56771 15.2188 3.14062C15.0417 2.71354 14.7917 2.34375 14.4688 2.03125C14.1562 1.70833 13.7865 1.45833 13.3594 1.28125C12.9323 1.09375 12.4792 1 12 1H5ZM8.5 12C7.94792 12 7.42708 11.8958 6.9375 11.6875C6.45833 11.4792 6.03646 11.1927 5.67188 10.8281C5.30729 10.4635 5.02083 10.0417 4.8125 9.5625C4.60417 9.07292 4.5 8.55208 4.5 8C4.5 7.44792 4.60417 6.92708 4.8125 6.4375C5.02083 5.95833 5.30729 5.53646 5.67188 5.17188C6.03646 4.80729 6.45833 4.52083 6.9375 4.3125C7.42708 4.10417 7.94792 4 8.5 4C9.05208 4 9.57292 4.10417 10.0625 4.3125C10.5417 4.52083 10.9635 4.80729 11.3281 5.17188C11.6927 5.53646 11.9792 5.95833 12.1875 6.4375C12.3958 6.92708 12.5 7.44792 12.5 8C12.5 8.55208 12.3958 9.07292 12.1875 9.5625C11.9792 10.0417 11.6927 10.4635 11.3281 10.8281C10.9635 11.1927 10.5417 11.4792 10.0625 11.6875C9.57292 11.8958 9.05208 12 8.5 12ZM8.5 5C7.66667 5 6.95833 5.29167 6.375 5.875C5.79167 6.45833 5.5 7.16667 5.5 8C5.5 8.83333 5.79167 9.54167 6.375 10.125C6.95833 10.7083 7.66667 11 8.5 11C9.33333 11 10.0417 10.7083 10.625 10.125C11.2083 9.54167 11.5 8.83333 11.5 8C11.5 7.16667 11.2083 6.45833 10.625 5.875C10.0417 5.29167 9.33333 5 8.5 5ZM13 4.5C12.7188 4.5 12.4792 4.40625 12.2812 4.21875C12.0938 4.02083 12 3.78125 12 3.5C12 3.21875 12.0938 2.98438 12.2812 2.79688C12.4792 2.59896 12.7188 2.5 13 2.5C13.2812 2.5 13.5156 2.59896 13.7031 2.79688C13.901 2.98438 14 3.21875 14 3.5C14 3.78125 13.901 4.02083 13.7031 4.21875C13.5156 4.40625 13.2812 4.5 13 4.5Z" fill="#404343"/>
</svg>
