<svg width="16" height="16" viewBox="0 0 16 16" fill="none" xmlns="http://www.w3.org/2000/svg">
<path d="M17 9.80835V15.9999H13.3555V10.224C13.3555 8.77314 12.8299 7.78237 11.5093 7.78237C10.5034 7.78237 9.90475 8.45027 9.64065 9.096C9.5438 9.32607 9.51989 9.64629 9.51989 9.97048V16H5.87412C5.87412 16 5.92322 6.21652 5.87412 5.20371H9.51989V6.73412C9.5133 6.7459 9.50269 6.75749 9.49598 6.76926H9.51989V6.73412C10.0043 5.99967 10.8683 4.94998 12.8047 4.94998C15.203 4.94998 17 6.49361 17 9.80835ZM2.06246 0C0.814859 0 0 0.806475 0 1.86524C0 2.90171 0.791012 3.73029 2.0147 3.73029H2.03727C3.30872 3.73029 4.09973 2.90177 4.09973 1.86524C4.07582 0.806535 3.30872 0 2.06246 0ZM0.216341 16H3.85948V5.20371H0.216341V16Z" fill="#404343"/>
</svg>
