<svg width="17" height="12" viewBox="0 0 17 12" fill="none" xmlns="http://www.w3.org/2000/svg">
<path d="M14.431 0.5H2.56908C2.15308 0.500479 1.75425 0.667817 1.46009 0.965305C1.16594 1.26279 1.00047 1.66613 1 2.08684V9.91316C1.00047 10.3339 1.16594 10.7372 1.46009 11.0347C1.75425 11.3322 2.15308 11.4995 2.56908 11.5H14.4309C14.8469 11.4995 15.2457 11.3322 15.5399 11.0347C15.8341 10.7372 15.9995 10.3339 16 9.91316V2.08684C15.9995 1.66613 15.8341 1.26279 15.5399 0.965297C15.2458 0.667807 14.847 0.50047 14.431 0.5ZM11.6411 5.99784L15.3724 3.03622V9.66091L11.6411 5.99784ZM2.56908 1.13474H14.4309C14.6805 1.13502 14.9198 1.23543 15.0963 1.41392C15.2728 1.59241 15.3721 1.83442 15.3724 2.08684V2.22934L9.33425 7.02218C9.11348 7.19648 8.84139 7.29104 8.56132 7.29081C8.28125 7.29058 8.00931 7.19557 7.78883 7.02091L1.62763 2.22814V2.08684C1.62791 1.83442 1.72719 1.59241 1.90369 1.41392C2.08018 1.23543 2.31948 1.13502 2.56908 1.13474ZM5.46992 6.01777L1.62763 9.6737V3.02892L5.46992 6.01777ZM14.431 10.8653H2.56908C2.40835 10.8652 2.25033 10.8235 2.11005 10.7441C1.96976 10.6648 1.85189 10.5505 1.76766 10.4121L5.97385 6.41004L7.40428 7.52274C7.7351 7.78406 8.14284 7.92597 8.56261 7.92586C8.98239 7.92575 9.39006 7.78363 9.72074 7.52213L11.1429 6.39354L15.234 10.4095C15.1499 10.5486 15.0319 10.6636 14.8913 10.7434C14.7507 10.8232 14.5922 10.8652 14.431 10.8653Z" fill="#404343" stroke="#404343" stroke-width="0.3"/>
</svg>
