<svg width="16" height="18" viewBox="0 0 16 18" fill="none" xmlns="http://www.w3.org/2000/svg">
<path d="M15.7529 13.9316C15.7529 13.9095 15.7474 13.8874 15.7363 13.8652C15.7363 13.8431 15.7308 13.8154 15.7197 13.7822C15.7087 13.7601 15.6921 13.738 15.6699 13.7158C15.6478 13.6937 15.6257 13.6715 15.6035 13.6494C15.6035 13.6383 15.598 13.6273 15.5869 13.6162C15.5869 13.6051 15.5814 13.5941 15.5703 13.583C15.5592 13.583 15.5537 13.583 15.5537 13.583C15.5537 13.5719 15.5537 13.5664 15.5537 13.5664C15.5316 13.5443 15.5039 13.5277 15.4707 13.5166C15.4486 13.5055 15.4209 13.4889 15.3877 13.4668C15.3766 13.4668 15.3656 13.4613 15.3545 13.4502C15.3434 13.4391 15.3324 13.4336 15.3213 13.4336C15.2992 13.4225 15.277 13.417 15.2549 13.417C15.2327 13.417 15.2161 13.417 15.2051 13.417C15.1719 13.4059 15.1387 13.4004 15.1055 13.4004C15.0833 13.3893 15.0612 13.3893 15.0391 13.4004C15.0391 13.4004 15.0335 13.4004 15.0225 13.4004C15.0225 13.3893 15.0225 13.3838 15.0225 13.3838C14.9229 13.3949 14.8232 13.4059 14.7236 13.417C14.624 13.417 14.5244 13.417 14.4248 13.417C13.4951 13.417 12.6263 13.251 11.8184 12.9189C10.9993 12.5758 10.2855 12.1165 9.67676 11.541C9.06803 10.9544 8.58659 10.2682 8.23242 9.48242C7.87826 8.70768 7.70117 7.8776 7.70117 6.99219C7.70117 6.48307 7.76758 5.97949 7.90039 5.48145C8.02214 4.99447 8.19922 4.52962 8.43164 4.08691C8.67513 3.63314 8.96842 3.21257 9.31152 2.8252C9.65462 2.43783 10.042 2.09473 10.4736 1.7959C10.4736 1.78483 10.4792 1.7793 10.4902 1.7793C10.5013 1.76823 10.5124 1.75163 10.5234 1.72949C10.5456 1.70736 10.5677 1.69076 10.5898 1.67969C10.6009 1.65755 10.612 1.64095 10.623 1.62988C10.6452 1.61882 10.6618 1.60221 10.6729 1.58008C10.6839 1.55794 10.6895 1.54134 10.6895 1.53027C10.6895 1.50814 10.695 1.49154 10.7061 1.48047C10.7171 1.44727 10.7282 1.4196 10.7393 1.39746C10.7503 1.37533 10.7559 1.34766 10.7559 1.31445C10.7669 1.31445 10.7725 1.30892 10.7725 1.29785C10.7725 1.28678 10.7669 1.27572 10.7559 1.26465C10.7559 1.24251 10.7559 1.22038 10.7559 1.19824C10.7559 1.17611 10.7559 1.15397 10.7559 1.13184C10.7559 1.09863 10.7503 1.07096 10.7393 1.04883C10.7393 1.01562 10.7337 0.987956 10.7227 0.96582C10.7116 0.943685 10.7005 0.921549 10.6895 0.899414C10.6784 0.888346 10.6673 0.877279 10.6562 0.866211C10.6562 0.844076 10.6507 0.827474 10.6396 0.816406C10.6396 0.805339 10.6396 0.799805 10.6396 0.799805C10.6396 0.799805 10.6341 0.799805 10.623 0.799805C10.612 0.777669 10.5954 0.761068 10.5732 0.75C10.5511 0.727865 10.529 0.705729 10.5068 0.683594C10.4958 0.672526 10.4847 0.661458 10.4736 0.650391C10.4626 0.639323 10.446 0.628255 10.4238 0.617188C10.4128 0.60612 10.3962 0.600586 10.374 0.600586C10.3519 0.589518 10.3298 0.578451 10.3076 0.567383C10.2855 0.556315 10.2633 0.545247 10.2412 0.53418C10.2191 0.523112 10.1969 0.517578 10.1748 0.517578C10.1637 0.517578 10.1582 0.517578 10.1582 0.517578C10.1582 0.517578 10.1527 0.517578 10.1416 0.517578C9.93132 0.484375 9.7321 0.46224 9.54395 0.451172C9.36686 0.440104 9.19531 0.43457 9.0293 0.43457C7.81185 0.43457 6.66634 0.655924 5.59277 1.09863C4.51921 1.55241 3.58398 2.16667 2.78711 2.94141C1.99023 3.70508 1.35938 4.60156 0.894531 5.63086C0.440755 6.66016 0.213867 7.76139 0.213867 8.93457C0.213867 10.1077 0.440755 11.209 0.894531 12.2383C1.35938 13.2676 1.99023 14.1696 2.78711 14.9443C3.58398 15.708 4.51921 16.3167 5.59277 16.7705C6.66634 17.2132 7.81185 17.4346 9.0293 17.4346C9.64909 17.4346 10.2633 17.3682 10.8721 17.2354C11.4808 17.1136 12.0618 16.931 12.6152 16.6875C13.1797 16.444 13.7165 16.1452 14.2256 15.791C14.7236 15.4368 15.1829 15.0329 15.6035 14.5791C15.6035 14.568 15.609 14.5625 15.6201 14.5625C15.6312 14.5404 15.6423 14.5182 15.6533 14.4961C15.6644 14.474 15.6755 14.4518 15.6865 14.4297C15.6976 14.4186 15.7087 14.4076 15.7197 14.3965C15.7308 14.3743 15.7419 14.3522 15.7529 14.3301C15.7529 14.3079 15.7529 14.2913 15.7529 14.2803C15.764 14.2581 15.7695 14.2415 15.7695 14.2305C15.7695 14.1973 15.7695 14.1696 15.7695 14.1475C15.7806 14.1143 15.7861 14.0811 15.7861 14.0479C15.7861 14.0479 15.7861 14.0423 15.7861 14.0312C15.7861 14.0202 15.7806 14.0091 15.7695 13.998C15.7695 13.9759 15.764 13.9538 15.7529 13.9316ZM9.0293 16.0234C8 16.0234 7.03711 15.8353 6.14062 15.459C5.24414 15.0938 4.45833 14.5902 3.7832 13.9482C3.11914 13.3063 2.59342 12.5537 2.20605 11.6904C1.81868 10.8271 1.625 9.90853 1.625 8.93457C1.625 8.01595 1.79655 7.15267 2.13965 6.34473C2.48275 5.53678 2.94759 4.81738 3.53418 4.18652C4.13184 3.55566 4.83464 3.04102 5.64258 2.64258C6.45052 2.23307 7.31934 1.98405 8.24902 1.89551C7.93913 2.24967 7.66243 2.62598 7.41895 3.02441C7.17546 3.42285 6.9707 3.83789 6.80469 4.26953C6.63867 4.70117 6.51139 5.14388 6.42285 5.59766C6.33431 6.05143 6.29004 6.51628 6.29004 6.99219C6.29004 7.97721 6.46712 8.9069 6.82129 9.78125C7.17546 10.6556 7.66243 11.4414 8.28223 12.1387C8.91309 12.8249 9.64909 13.3949 10.4902 13.8486C11.3314 14.3024 12.2445 14.6012 13.2295 14.7451C12.6208 15.1546 11.9567 15.4701 11.2373 15.6914C10.5179 15.9128 9.7819 16.0234 9.0293 16.0234Z" fill="#C6CBCA"/>
</svg>
