<svg width="22" height="17" viewBox="0 0 22 17" fill="none" xmlns="http://www.w3.org/2000/svg">
<path d="M2 2.5H20C20.2812 2.5 20.5156 2.40625 20.7031 2.21875C20.9062 2.01563 21.0078 1.77344 21.0078 1.49219C21.0078 1.22656 20.9062 1 20.7031 0.8125C20.5156 0.609375 20.2812 0.507812 20 0.507812H2C1.71875 0.507812 1.47656 0.609375 1.27344 0.8125C1.08594 1 0.992188 1.22656 0.992188 1.49219C0.992188 1.77344 1.08594 2.01563 1.27344 2.21875C1.47656 2.40625 1.71875 2.5 2 2.5ZM20 7.49219H2C1.71875 7.49219 1.47656 7.59375 1.27344 7.79688C1.08594 7.98438 0.992188 8.21875 0.992188 8.5C0.992188 8.78125 1.08594 9.02344 1.27344 9.22656C1.47656 9.41406 1.71875 9.50781 2 9.50781H20C20.2812 9.50781 20.5156 9.41406 20.7031 9.22656C20.9062 9.02344 21.0078 8.78125 21.0078 8.5C21.0078 8.21875 20.9062 7.98438 20.7031 7.79688C20.5156 7.59375 20.2812 7.49219 20 7.49219ZM20 14.5H2C1.71875 14.5 1.47656 14.6016 1.27344 14.8047C1.08594 14.9922 0.992188 15.2266 0.992188 15.5078C0.992188 15.7734 1.08594 16.0078 1.27344 16.2109C1.47656 16.3984 1.71875 16.4922 2 16.4922H20C20.2812 16.4922 20.5156 16.3984 20.7031 16.2109C20.9062 16.0078 21.0078 15.7734 21.0078 15.5078C21.0078 15.2266 20.9062 14.9922 20.7031 14.8047C20.5156 14.6016 20.2812 14.5 20 14.5Z" fill="#212121"/>
</svg>
