<svg width="16" height="17" viewBox="0 0 16 17" fill="none" xmlns="http://www.w3.org/2000/svg">
<path d="M15.5869 15.2695L11.5527 11.2354C11.9954 10.693 12.3385 10.0843 12.582 9.40918C12.8366 8.73405 12.9639 8.02018 12.9639 7.26758C12.9639 6.38216 12.7923 5.55208 12.4492 4.77734C12.1172 4.0026 11.6634 3.32747 11.0879 2.75195C10.5124 2.17643 9.83724 1.72266 9.0625 1.39062C8.28776 1.05859 7.46322 0.892578 6.58887 0.892578C5.70345 0.892578 4.87337 1.05859 4.09863 1.39062C3.32389 1.72266 2.64876 2.17643 2.07324 2.75195C1.49772 3.32747 1.04395 4.0026 0.711914 4.77734C0.379883 5.55208 0.213867 6.38216 0.213867 7.26758C0.213867 8.14193 0.379883 8.96647 0.711914 9.74121C1.04395 10.516 1.49772 11.1911 2.07324 11.7666C2.64876 12.3421 3.32389 12.7959 4.09863 13.1279C4.87337 13.471 5.70345 13.6426 6.58887 13.6426C7.34147 13.6426 8.05534 13.5208 8.73047 13.2773C9.4056 13.0228 10.0143 12.6742 10.5566 12.2314L14.5908 16.2656C14.6572 16.332 14.7292 16.3818 14.8066 16.415C14.8952 16.4482 14.9893 16.4648 15.0889 16.4648C15.1774 16.4648 15.266 16.4482 15.3545 16.415C15.443 16.3818 15.5205 16.332 15.5869 16.2656C15.7197 16.1217 15.7861 15.9557 15.7861 15.7676C15.7861 15.5684 15.7197 15.3968 15.5869 15.2529V15.2695ZM6.58887 12.2148C5.90267 12.2148 5.26074 12.0876 4.66309 11.833C4.05436 11.5674 3.52311 11.2132 3.06934 10.7705C2.62663 10.3167 2.27799 9.79102 2.02344 9.19336C1.75781 8.58464 1.625 7.94271 1.625 7.26758C1.625 6.58138 1.75781 5.93945 2.02344 5.3418C2.27799 4.73307 2.62663 4.20736 3.06934 3.76465C3.52311 3.31087 4.05436 2.95671 4.66309 2.70215C5.26074 2.43652 5.90267 2.30371 6.58887 2.30371C7.264 2.30371 7.90592 2.43652 8.51465 2.70215C9.1123 2.95671 9.63249 3.31087 10.0752 3.76465C10.529 4.20736 10.8887 4.73307 11.1543 5.3418C11.4089 5.93945 11.5361 6.58138 11.5361 7.26758C11.5361 7.94271 11.4089 8.58464 11.1543 9.19336C10.8887 9.79102 10.529 10.3167 10.0752 10.7705C9.63249 11.2132 9.1123 11.5674 8.51465 11.833C7.90592 12.0876 7.264 12.2148 6.58887 12.2148Z" fill="#404343"/>
</svg>
