<svg width="16" height="16" viewBox="0 0 16 16" fill="none" xmlns="http://www.w3.org/2000/svg">
<path d="M15.5869 14.5254L11.5527 10.4912C11.9954 9.94889 12.3385 9.34017 12.582 8.66504C12.8366 7.98991 12.9639 7.27604 12.9639 6.52344C12.9639 5.63802 12.7923 4.80794 12.4492 4.0332C12.1172 3.25846 11.6634 2.58333 11.0879 2.00781C10.5124 1.43229 9.83724 0.978516 9.0625 0.646484C8.28776 0.314453 7.46322 0.148438 6.58887 0.148438C5.70345 0.148438 4.87337 0.314453 4.09863 0.646484C3.32389 0.978516 2.64876 1.43229 2.07324 2.00781C1.49772 2.58333 1.04395 3.25846 0.711914 4.0332C0.379883 4.80794 0.213867 5.63802 0.213867 6.52344C0.213867 7.39779 0.379883 8.22233 0.711914 8.99707C1.04395 9.77181 1.49772 10.4469 2.07324 11.0225C2.64876 11.598 3.32389 12.0518 4.09863 12.3838C4.87337 12.7269 5.70345 12.8984 6.58887 12.8984C7.34147 12.8984 8.05534 12.7767 8.73047 12.5332C9.4056 12.2786 10.0143 11.93 10.5566 11.4873L14.5908 15.5215C14.6572 15.5879 14.7292 15.6377 14.8066 15.6709C14.8952 15.7041 14.9893 15.7207 15.0889 15.7207C15.1774 15.7207 15.266 15.7041 15.3545 15.6709C15.443 15.6377 15.5205 15.5879 15.5869 15.5215C15.7197 15.3776 15.7861 15.2116 15.7861 15.0234C15.7861 14.8242 15.7197 14.6527 15.5869 14.5088V14.5254ZM6.58887 11.4707C5.90267 11.4707 5.26074 11.3434 4.66309 11.0889C4.05436 10.8232 3.52311 10.4691 3.06934 10.0264C2.62663 9.57259 2.27799 9.04688 2.02344 8.44922C1.75781 7.84049 1.625 7.19857 1.625 6.52344C1.625 5.83724 1.75781 5.19531 2.02344 4.59766C2.27799 3.98893 2.62663 3.46322 3.06934 3.02051C3.52311 2.56673 4.05436 2.21257 4.66309 1.95801C5.26074 1.69238 5.90267 1.55957 6.58887 1.55957C7.264 1.55957 7.90592 1.69238 8.51465 1.95801C9.1123 2.21257 9.63249 2.56673 10.0752 3.02051C10.529 3.46322 10.8887 3.98893 11.1543 4.59766C11.4089 5.19531 11.5361 5.83724 11.5361 6.52344C11.5361 7.19857 11.4089 7.84049 11.1543 8.44922C10.8887 9.04688 10.529 9.57259 10.0752 10.0264C9.63249 10.4691 9.1123 10.8232 8.51465 11.0889C7.90592 11.3434 7.264 11.4707 6.58887 11.4707Z" fill="#C6CBCA"/>
</svg>
