<svg width="17" height="14" viewBox="0 0 17 14" fill="none" xmlns="http://www.w3.org/2000/svg">
<path d="M16.2344 0.796875C16.1302 0.734375 16.0052 0.703125 15.8594 0.703125C15.724 0.703125 15.6042 0.734375 15.5 0.796875C15.2708 0.963542 15.0208 1.11458 14.75 1.25C14.4896 1.38542 14.2292 1.5 13.9688 1.59375C13.6354 1.30208 13.2604 1.07812 12.8438 0.921875C12.4375 0.755208 12.0208 0.671875 11.5938 0.671875C11.1667 0.661458 10.7396 0.729167 10.3125 0.875C9.89583 1.01042 9.51562 1.22917 9.17188 1.53125C8.73438 1.89583 8.40104 2.32292 8.17188 2.8125C7.94271 3.29167 7.82812 3.79688 7.82812 4.32812C7.34896 4.29688 6.88021 4.21354 6.42188 4.07812C5.97396 3.93229 5.54167 3.74479 5.125 3.51562C4.71875 3.28646 4.33854 3.01042 3.98438 2.6875C3.63021 2.36458 3.3125 2 3.03125 1.59375C2.96875 1.5 2.88542 1.43229 2.78125 1.39062C2.6875 1.34896 2.57292 1.32812 2.4375 1.32812C2.30208 1.32812 2.1875 1.36979 2.09375 1.45312C2 1.53646 1.9375 1.63021 1.90625 1.73438C1.86458 1.76562 1.73438 2.13542 1.51562 2.84375C1.29688 3.54167 1.20312 4.36979 1.23438 5.32812C1.25521 5.74479 1.31771 6.1875 1.42188 6.65625C1.52604 7.11458 1.69792 7.57812 1.9375 8.04688C2.17708 8.51562 2.5 8.97396 2.90625 9.42188C3.3125 9.86979 3.82292 10.2865 4.4375 10.6719C3.9375 10.901 3.40625 11.0677 2.84375 11.1719C2.29167 11.276 1.73438 11.3281 1.17188 11.3281C1.03646 11.3281 0.895833 11.375 0.75 11.4688C0.614583 11.5521 0.53125 11.6615 0.5 11.7969C0.46875 11.9323 0.484375 12.0729 0.546875 12.2188C0.609375 12.3646 0.703125 12.4688 0.828125 12.5312C1.24479 12.7708 1.67188 12.974 2.10938 13.1406C2.53646 13.3177 2.96354 13.4688 3.39062 13.5938C3.82812 13.7083 4.26562 13.7917 4.70312 13.8438C5.13021 13.9062 5.55208 13.9375 5.96875 13.9375C6.80208 13.9375 7.61458 13.8333 8.40625 13.625C9.19792 13.4167 9.96354 13.099 10.7031 12.6719C11.4219 12.2656 12.0573 11.776 12.6094 11.2031C13.1615 10.6302 13.625 9.98958 14 9.28125C14.3854 8.5625 14.6771 7.78646 14.875 6.95312C15.0729 6.11979 15.1719 5.24479 15.1719 4.32812C15.1719 4.26562 15.1719 4.21354 15.1719 4.17188C15.1719 4.11979 15.1719 4.0625 15.1719 4C15.5052 3.63542 15.7812 3.23958 16 2.8125C16.2292 2.38542 16.3958 1.9375 16.5 1.46875C16.5312 1.33333 16.5208 1.20833 16.4688 1.09375C16.4167 0.96875 16.3385 0.869792 16.2344 0.796875ZM13.9688 3.32812C13.8958 3.40104 13.8438 3.49479 13.8125 3.60938C13.7812 3.72396 13.7656 3.83333 13.7656 3.9375C13.7969 4 13.8125 4.06771 13.8125 4.14062C13.8229 4.20312 13.8281 4.26562 13.8281 4.32812C13.8281 5.13021 13.7448 5.89062 13.5781 6.60938C13.4115 7.32812 13.1615 7.99479 12.8281 8.60938C12.5052 9.22396 12.1094 9.77604 11.6406 10.2656C11.1719 10.7656 10.6354 11.1875 10.0312 11.5312C9.5625 11.8021 9.07812 12.0208 8.57812 12.1875C8.06771 12.3542 7.54688 12.474 7.01562 12.5469C6.49479 12.6094 5.95833 12.6198 5.40625 12.5781C4.86458 12.5469 4.31771 12.4635 3.76562 12.3281C4.20312 12.2031 4.61979 12.0521 5.01562 11.875C5.41146 11.6875 5.79688 11.4635 6.17188 11.2031C6.29688 11.1302 6.38021 11.0469 6.42188 10.9531C6.47396 10.849 6.5 10.7292 6.5 10.5938C6.5 10.4688 6.45833 10.3594 6.375 10.2656C6.29167 10.1615 6.19792 10.0938 6.09375 10.0625C5.13542 9.63542 4.40104 9.125 3.89062 8.53125C3.39062 7.9375 3.03646 7.33333 2.82812 6.71875C2.63021 6.09375 2.54688 5.48958 2.57812 4.90625C2.59896 4.32292 2.66146 3.82292 2.76562 3.40625C3.13021 3.77083 3.53125 4.09375 3.96875 4.375C4.40625 4.66667 4.86979 4.91146 5.35938 5.10938C5.84896 5.30729 6.35417 5.45312 6.875 5.54688C7.40625 5.64062 7.94792 5.68229 8.5 5.67188C8.66667 5.67188 8.81771 5.60417 8.95312 5.46875C9.09896 5.32292 9.17188 5.16667 9.17188 5V4.32812C9.17188 3.99479 9.23438 3.67188 9.35938 3.35938C9.49479 3.04688 9.69792 2.77083 9.96875 2.53125C10.4375 2.10417 11 1.91667 11.6562 1.96875C12.3125 2.01042 12.8385 2.26562 13.2344 2.73438C13.3385 2.83854 13.4479 2.90625 13.5625 2.9375C13.6875 2.96875 13.8021 2.96875 13.9062 2.9375C13.9688 2.90625 14.0417 2.88542 14.125 2.875C14.2188 2.85417 14.2969 2.82812 14.3594 2.79688C14.2969 2.90104 14.2292 2.99479 14.1562 3.07812C14.0938 3.15104 14.0312 3.23438 13.9688 3.32812Z" fill="#404343"/>
</svg>
