<svg width="16" height="12" viewBox="0 0 16 12" fill="none" xmlns="http://www.w3.org/2000/svg">
<path d="M16 1.42149C15.3981 1.66382 14.7616 1.82488 14.11 1.89971C14.7967 1.5236 15.3101 0.928029 15.5529 0.225851C14.9101 0.577775 14.2068 0.825634 13.4735 0.958709C13.0237 0.515142 12.4398 0.206738 11.7976 0.0735963C11.1555 -0.0595457 10.4848 -0.0112669 9.87272 0.212155C9.26068 0.435578 8.73561 0.823807 8.36578 1.32637C7.99596 1.82893 7.79849 2.42257 7.79904 3.03011C7.79652 3.26195 7.82202 3.49332 7.87507 3.71993C6.57014 3.66088 5.29341 3.34826 4.12834 2.80252C2.96327 2.25678 1.93609 1.49021 1.11396 0.552915C0.691876 1.21898 0.561074 2.00864 0.748257 2.7607C0.93544 3.51276 1.42649 4.17053 2.12119 4.59975C1.60219 4.58681 1.09416 4.4589 0.639916 4.2268V4.25979C0.64077 4.95901 0.90256 5.6366 1.38122 6.17852C1.85988 6.72044 2.52618 7.09359 3.26797 7.23516C2.98735 7.30344 2.69813 7.33698 2.40793 7.33488C2.19955 7.33828 1.99137 7.32094 1.78702 7.28315C1.99902 7.88407 2.40759 8.40957 2.9565 8.78729C3.5054 9.16502 4.16765 9.3764 4.85208 9.39234C3.69102 10.2305 2.2591 10.6852 0.785152 10.6838C0.522738 10.6854 0.260484 10.6715 0 10.6421C1.49987 11.5343 3.24763 12.0062 5.03192 12.0009C11.0678 12.0009 14.368 7.38557 14.368 3.38492C14.368 3.25101 14.3629 3.12189 14.3559 2.99352C15.0029 2.56613 15.5601 2.0334 16 1.42149Z" fill="#404343"/>
</svg>
